<svg width="21" height="19" viewBox="0 0 21 19" fill="none" xmlns="http://www.w3.org/2000/svg">
<path d="M8.99902 0.929756C8.45802 0.930956 7.97152 1.07846 7.53022 1.33596C7.25132 1.49886 6.72782 1.95436 5.87402 2.74226C5.83902 2.77456 5.03412 3.54316 4.62402 3.92976C4.37572 3.92956 3.11592 3.92906 2.99902 3.92976C1.37432 3.93996 0.0110234 5.31156 -0.000976562 6.92975V12.9298C0.0168234 14.6133 1.32012 15.9453 2.99902 15.9298C3.07472 15.9291 4.33943 15.9294 4.59283 15.9298C4.99163 16.3081 5.80963 17.0865 5.84283 17.1173C6.68203 17.8974 7.19783 18.3287 7.46783 18.4923C7.92143 18.7673 8.43102 18.9363 8.99902 18.9298C10.665 18.9106 12.019 17.5792 11.999 15.9298L11.968 9.92976L11.999 3.92976C11.997 2.25886 10.644 0.926156 8.99902 0.929756ZM8.99902 2.92976C9.54302 2.92856 9.99802 3.37476 9.99902 3.92976L9.96802 9.92976L9.99902 15.9298C10.005 16.471 9.57002 16.9232 8.99902 16.9298C8.82302 16.9318 8.64602 16.8941 8.49902 16.8048C8.40702 16.7488 7.89233 16.2756 7.21783 15.6486C7.17803 15.6116 5.77412 14.2956 5.68652 14.211C5.50012 14.0313 5.25792 13.9298 4.99902 13.9298C4.91072 13.9298 3.13722 13.9285 2.99902 13.9298C2.43932 13.935 2.00522 13.5144 1.99902 12.9298V6.92975C2.00292 6.41006 2.47102 5.93305 2.99902 5.92976C3.17882 5.92866 4.82972 5.92966 4.99902 5.92976C5.25712 5.92976 5.50022 5.82725 5.68652 5.64855C5.77472 5.56385 7.17533 4.25016 7.21783 4.21096C7.89493 3.58606 8.44202 3.10606 8.53002 3.05476C8.68002 2.96736 8.82902 2.93016 8.99902 2.92976ZM14.999 6.92975C14.743 6.92975 14.476 7.01576 14.28 7.21096C13.89 7.60156 13.89 8.25795 14.28 8.64855L15.561 9.92976L14.28 11.211C13.89 11.6016 13.89 12.258 14.28 12.6486C14.671 13.0391 15.327 13.0391 15.718 12.6486L16.999 11.3673L18.28 12.6486C18.671 13.0391 19.327 13.0391 19.718 12.6486C20.108 12.258 20.108 11.6016 19.718 11.211L18.437 9.92976L19.718 8.64855C20.108 8.25795 20.108 7.60156 19.718 7.21096C19.522 7.01576 19.255 6.92975 18.999 6.92975C18.743 6.92975 18.476 7.01576 18.28 7.21096L16.999 8.49225L15.718 7.21096C15.522 7.01576 15.255 6.92975 14.999 6.92975Z" fill="#5B88FF"/>
</svg>
