<svg width="18" height="19" viewBox="0 0 18 19" fill="none" xmlns="http://www.w3.org/2000/svg">
<path d="M9.9978 0.929771C9.4569 0.930971 8.9703 1.07847 8.529 1.33597C8.2501 1.49887 7.7266 1.95437 6.8728 2.74227C6.8378 2.77457 6.0329 3.54317 5.6228 3.92977C5.3745 3.92957 4.1147 3.92907 3.9978 3.92977C2.3731 3.93997 1.0098 5.31157 0.997803 6.92977V12.9298C1.0156 14.6133 2.3189 15.9453 3.9978 15.9298C4.0735 15.9291 5.3382 15.9294 5.5916 15.9298C5.9904 16.3081 6.8084 17.0865 6.8416 17.1173C7.6808 17.8974 8.1966 18.3287 8.4666 18.4923C8.9202 18.7673 9.4301 18.9363 9.9978 18.9298C11.6635 18.9106 13.0176 17.5792 12.9978 15.9298L12.9666 9.92977L12.9978 3.92977C12.9962 2.25887 11.6433 0.926171 9.9978 0.929771ZM9.9978 2.92977C10.5421 2.92857 10.9973 3.37477 10.9978 3.92977L10.9666 9.92977L10.9978 15.9298C11.0043 16.471 10.5687 16.9232 9.9978 16.9298C9.8214 16.9318 9.6451 16.8941 9.4978 16.8048C9.4055 16.7488 8.8911 16.2756 8.2166 15.6486C8.1768 15.6116 6.7729 14.2956 6.6853 14.211C6.4989 14.0313 6.2568 13.9298 5.9978 13.9298C5.9095 13.9298 4.136 13.9285 3.9978 13.9298C3.4381 13.935 3.004 13.5144 2.9978 12.9298V6.92977C3.0017 6.41007 3.4699 5.93307 3.9978 5.92977C4.1776 5.92867 5.8285 5.92967 5.9978 5.92977C6.2559 5.92977 6.4991 5.82727 6.6853 5.64857C6.7735 5.56387 8.1741 4.25017 8.2166 4.21097C8.8937 3.58607 9.4411 3.10607 9.529 3.05477C9.6788 2.96737 9.8282 2.93017 9.9978 2.92977ZM16.1228 5.92977C15.8693 5.89457 15.6243 5.95067 15.404 6.11727C14.9636 6.45047 14.8521 7.08307 15.1853 7.52357C15.7037 8.20887 15.9978 9.04197 15.9978 9.92977C15.9978 10.808 15.7016 11.6485 15.1853 12.336C14.8537 12.7777 14.9624 13.4107 15.404 13.7423C15.8457 14.0739 16.4787 13.9652 16.8103 13.5236C17.5844 12.4927 17.9978 11.2451 17.9978 9.92977C17.9978 8.60427 17.5902 7.36707 16.8103 6.33597C16.6437 6.11577 16.3763 5.96497 16.1228 5.92977Z" fill="#4169E1"/>
</svg>
