<svg width="18" height="19" viewBox="0 0 18 19" fill="none" xmlns="http://www.w3.org/2000/svg">
<path d="M9.99805 0.429756C9.45715 0.430956 8.97055 0.578456 8.52925 0.835956C8.25035 0.998856 7.72685 1.45436 6.87305 2.24226C6.83805 2.27456 6.03315 3.04316 5.62305 3.42976C5.37475 3.42956 4.11495 3.42906 3.99805 3.42976C2.37335 3.43996 1.01005 4.81156 0.998047 6.42975V12.4298C1.01585 14.1133 2.31915 15.4453 3.99805 15.4298C4.07375 15.4291 5.33845 15.4294 5.59185 15.4298C5.99065 15.8081 6.80865 16.5865 6.84185 16.6173C7.68105 17.3974 8.19685 17.8287 8.46685 17.9923C8.92045 18.2673 9.43035 18.4363 9.99805 18.4298C11.6637 18.4106 13.0178 17.0792 12.998 15.4298L12.9668 9.42976L12.998 3.42976C12.9964 1.75886 11.6435 0.426156 9.99805 0.429756ZM9.99805 2.42976C10.5423 2.42856 10.9975 2.87476 10.998 3.42976L10.9668 9.42976L10.998 15.4298C11.0045 15.971 10.5689 16.4232 9.99805 16.4298C9.82165 16.4318 9.64535 16.3941 9.49805 16.3048C9.40575 16.2488 8.89135 15.7756 8.21685 15.1486C8.17705 15.1116 6.77315 13.7956 6.68555 13.711C6.49915 13.5313 6.25705 13.4298 5.99805 13.4298C5.90975 13.4298 4.13625 13.4285 3.99805 13.4298C3.43835 13.435 3.00425 13.0144 2.99805 12.4298V6.42975C3.00195 5.91006 3.47015 5.43305 3.99805 5.42976C4.17785 5.42866 5.82875 5.42966 5.99805 5.42976C6.25615 5.42976 6.49935 5.32725 6.68555 5.14855C6.77375 5.06385 8.17435 3.75016 8.21685 3.71096C8.89395 3.08606 9.44135 2.60606 9.52925 2.55476C9.67905 2.46736 9.82845 2.43016 9.99805 2.42976ZM16.123 5.42976C15.8695 5.39456 15.6245 5.45065 15.4042 5.61726C14.9638 5.95046 14.8523 6.58305 15.1855 7.02355C15.7039 7.70885 15.998 8.54195 15.998 9.42976C15.998 10.308 15.7018 11.1485 15.1855 11.836C14.8539 12.2777 14.9626 12.9107 15.4042 13.2423C15.8459 13.5739 16.4789 13.4652 16.8105 13.0236C17.5846 11.9927 17.998 10.7451 17.998 9.42976C17.998 8.10426 17.5904 6.86706 16.8105 5.83596C16.6439 5.61576 16.3765 5.46495 16.123 5.42976Z" fill="#4169E1"/>
</svg>
